<svg width="14" height="14" viewBox="0 0 14 14" fill="none" xmlns="http://www.w3.org/2000/svg">
<mask id="mask0_656_147" style="mask-type:alpha" maskUnits="userSpaceOnUse" x="0" y="0" width="14" height="14">
<rect width="14" height="14" fill="#828282"/>
</mask>
<g mask="url(#mask0_656_147)">
<rect width="14" height="14" fill="#FFEB00"/>
<path d="M2.5 4.54375C2.5 4.35395 2.62033 4.11999 2.77489 4.02406L6.7225 1.57195C6.87707 1.47602 7.1288 1.47602 7.28337 1.57195L11.2264 4.02406C11.381 4.11999 11.5 4.35395 11.5 4.54375V9.45625C11.5 9.64605 11.3803 9.88001 11.2258 9.97594L7.27848 12.4281C7.12391 12.524 6.8725 12.524 6.71761 12.4281L2.77424 9.97559C2.61967 9.87966 2.5 9.6457 2.5 9.45591V4.54375Z" fill="#1977D1"/>
<path d="M7.18404 6.94726V8.1057C7.18404 8.1057 7.21218 8.31307 7.45014 8.11155L9.79391 6.5033C9.79391 6.5033 9.87944 6.4686 9.87944 6.27293C9.87944 6.27293 9.88419 6.16145 9.80158 6.07297C9.71861 5.98449 7.4092 4.43626 7.4092 4.43626C7.4092 4.43626 7.29406 4.40157 7.29406 4.58243V5.81688H5.01389C5.01389 5.81688 4.47949 5.78492 4.47949 6.31542V8.84357L5.15462 9.27191C5.15462 9.27191 5.42987 9.49097 5.42987 9.22981V7.14176C5.42987 7.14176 5.45362 6.94765 5.75263 6.94765H7.29406" fill="#FFEB00"/>
</g>
</svg>
