<svg width="14" height="14" viewBox="0 0 14 14" fill="none" xmlns="http://www.w3.org/2000/svg">
<mask id="mask0_656_132" style="mask-type:alpha" maskUnits="userSpaceOnUse" x="0" y="0" width="14" height="14">
<rect width="14" height="14" fill="#828282"/>
</mask>
<g mask="url(#mask0_656_132)">
<rect width="14" height="14" fill="#FDFDFE"/>
<path d="M14 9.5H5V12H14V9.5Z" fill="#266BFA"/>
<path d="M7.33726 2.92042C5.99992 1.69655 4.02213 1.69253 2.66922 2.91238C1.35426 4.09707 1.1158 6.12279 2.12027 7.64912C2.80451 8.68911 3.49459 9.72508 4.18663 10.76L5.01881 12L5.83251 10.76C6.09823 10.3641 6.36297 9.96825 6.63161 9.5633C7.05305 8.90515 7.46282 8.28216 7.87161 7.65816C8.87997 6.11777 8.65514 4.12722 7.33823 2.92143L7.33726 2.92042Z" fill="#07C85C"/>
<path d="M5.51417 4.2002V5.71333L4.48937 4.2002H3.5V7.2002H4.48583V5.68586L5.51063 7.2002H6.5V4.2002H5.51417Z" fill="white"/>
</g>
</svg>
