<?xml version="1.0" encoding="utf-8"?>
<!-- Generator: Adobe Illustrator 28.2.0, SVG Export Plug-In . SVG Version: 6.00 Build 0)  -->
<svg version="1.1" id="_레이어_2" xmlns="http://www.w3.org/2000/svg" xmlns:xlink="http://www.w3.org/1999/xlink" x="0px"
	 y="0px" viewBox="0 0 180 180" style="enable-background:new 0 0 180 180;" xml:space="preserve">
<style type="text/css">
	.st0{fill:#689136;}
	.st1{fill:#7EB750;}
	.st2{fill:#F5C83A;}
	.st3{fill:#8C99A1;}
	.st4{fill:#D0D0D0;}
	.st5{fill:#464D51;}
</style>
<g>
	<path class="st0" d="M24.1,45.3c0,0-6.4,5.8-2.8,13.3s1.9,12,1.9,12s7.1-9.6,4.5-15.5C25.2,49.3,24.9,48.7,24.1,45.3z"/>
	<path class="st0" d="M7.5,83.6c0,0,7.4,3.6,10.8-4.1c3.4-7.6,7.4-8.3,7.4-8.3s-10.4-2.3-13.2,3.5C9.7,80.4,9.5,81,7.5,83.6z"/>
	<path class="st0" d="M36.6,53.9c0,0-7.6,3.1-6,11.6c1.5,8.5-1.2,12.2-1.2,12.2s9.2-6.5,8.2-13.1C36.6,58,36.5,57.4,36.6,53.9z"/>
	<path class="st0" d="M16.6,95.9c0,0,7.9,0.6,9.2-8c1.3-8.6,4.9-10.7,4.9-10.7S20.2,79,19,85.5C17.9,92.1,17.8,92.8,16.6,95.9z"/>
	<path class="st1" d="M10.8,57.4c8.5,6,16.1,14.9,21.7,24.6c6,10,9.8,21.6,9.2,34.2c-0.1,0-0.1,0-0.2,0c-2.2-11.6-5.2-23-10.6-33.1
		c-2.4-4.5-5.2-8.6-8.1-12.5c-2-2.8-4.4-5.4-6.7-7.8C15.2,61.9,10.7,58.5,10.8,57.4z"/>
	<path class="st0" d="M0,51.9c0,0,1.2,9.5,8.3,9.2c7.2-0.3,9.7,3.6,9.7,3.6s-3.6-12.1-9.2-12.1C3.3,52.6,2.8,52.6,0,51.9z"/>
	<polygon class="st2" points="42.5,85.4 28.9,95.9 46.3,93.7 	"/>
	<path class="st3" d="M77.5,90.1c0.9-24.1,34.9-43.6,52.7-74.4c7.7-13.2,14.3-6.2,9.7,17.8c31,5.6-24.1,73.4-35.1,78.3L77.5,90.1z"
		/>
	<path class="st4" d="M75.3,92.4c0.9-24.1,45.2-35.8,64.8-61.7c40.9-54,50.8-23.9,27.6-6.2c31,5.6-7.2,25.8-7.2,25.8
		c34,1.8-2.6,20-2.6,20c28.5,5.5-9,15.5-9,15.5c18.9,7-7.7,14.4-7.7,14.4c13.4,10.6-13.2,11.6-24.3,16.6L75.3,92.4z"/>
	<path class="st4" d="M40.6,90.1c0.1-5.8,6.9-13.2,17-13.2c27.3,0,54.7,29.1,74.5,55.3c11.6,15.4,31.2,8.3,37.1,16.7
		c4.2,6-4.8,8.6-4.8,8.6s7.6,12.8-6.8,8c0,0,4.7,15.3-12.7,8.8c0,0-3.9,9.8-12.2,3.5c-11.3-8.4-2-33.7-34.4-41.2
		c-54.6-12.7-44.2-32.6-47.7-37.5C48.6,96.6,40.5,93.4,40.6,90.1z"/>
	<circle class="st5" cx="54.1" cy="86.6" r="3.3"/>
</g>
</svg>
