<?xml version="1.0" encoding="utf-8"?>
<!-- Generator: Adobe Illustrator 28.2.0, SVG Export Plug-In . SVG Version: 6.00 Build 0)  -->
<svg version="1.0" id="speaker" xmlns="http://www.w3.org/2000/svg" xmlns:xlink="http://www.w3.org/1999/xlink" x="0px" y="0px"
	 viewBox="0 0 20 20" enable-background="new 0 0 20 20" xml:space="preserve">
<g>
	<polygon points="6.196,8 2.982,8 2.982,12 6.23,12 10.982,15.918 10.982,3.951 	"/>
	<path d="M12.703,14.164l-0.719-0.697c0.826-0.85,1.269-1.971,1.252-3.156c-0.018-1.186-0.496-2.292-1.35-3.118l0.697-0.718
		c1.043,1.012,1.631,2.369,1.652,3.82C14.259,11.746,13.714,13.121,12.703,14.164z"/>
	<path d="M14.73,16.049l-0.717-0.695c1.322-1.363,2.033-3.158,2.004-5.055c-0.029-1.896-0.797-3.669-2.16-4.99l0.695-0.718
		c1.557,1.507,2.432,3.529,2.465,5.692C17.05,12.446,16.24,14.494,14.73,16.049z"/>
</g>
<g>
	<rect x="9.2" y="0.7" transform="matrix(0.7071 -0.7071 0.7071 0.7071 -4.1421 10)" fill="#231F20" width="1.6" height="18.6"/>
	<path fill="#FFFFFF" d="M3.99,3.282L16.718,16.01l-0.707,0.707L3.282,3.99L3.99,3.282 M3.99,2.434L3.565,2.858L2.858,3.565
		L2.434,3.99l0.424,0.424l12.728,12.728l0.424,0.424l0.424-0.424l0.707-0.707l0.424-0.424l-0.424-0.424L4.414,2.858L3.99,2.434
		L3.99,2.434z"/>
</g>
</svg>
