<?xml version="1.0" encoding="utf-8"?>
<!-- Generator: Adobe Illustrator 28.2.0, SVG Export Plug-In . SVG Version: 6.00 Build 0)  -->
<svg version="1.1" id="_레이어_2" xmlns="http://www.w3.org/2000/svg" xmlns:xlink="http://www.w3.org/1999/xlink" x="0px"
	 y="0px" viewBox="0 0 85 85" style="enable-background:new 0 0 85 85;" xml:space="preserve">
<style type="text/css">
	.st0{fill:#DD2E44;}
</style>
<path class="st0" d="M83.6,28.2C83.6,28.2,83.6,28.2,83.6,28.2c0-0.1,0-0.1,0-0.2c0-12.4-8.9-23.8-22.2-23.8
	c-10.6,0-16.8,7.7-18.9,14.9C40.4,12,34.3,4.3,23.7,4.3C10.3,4.3,1.4,15.6,1.4,28c0,0.1,0,0.1,0,0.2c-0.1,2.5,0,26.9,34.1,48.4
	c0,0,0,0,0,0c0.3,0.2,0.6,0.4,0.9,0.6c0,0,0.1,0.1,0.1,0.1c0.3,0.2,0.5,0.3,0.8,0.5c0.1,0,0.2,0.1,0.2,0.1c0.2,0.1,0.5,0.3,0.7,0.4
	c0.1,0.1,0.2,0.1,0.3,0.2c0.2,0.1,0.5,0.3,0.7,0.4c0.1,0.1,0.2,0.1,0.3,0.2c0.2,0.1,0.5,0.3,0.7,0.4c0.1,0.1,0.2,0.1,0.3,0.2
	c0.2,0.1,0.5,0.3,0.7,0.4c0.1,0,0.2,0.1,0.3,0.1c0.3,0.2,0.7,0.4,1,0.6v0l0,0l0,0c0,0,0,0,0,0c0,0,0,0,0,0c0,0,0,0,0,0c0,0,0,0,0,0
	c0,0,0,0,0,0l0,0h0v0c5-2.7,9.4-5.5,13.3-8.4c0.2-0.1,0.3-0.2,0.5-0.4c1.1-0.8,2.1-1.6,3.1-2.4c0.7-0.6,1.4-1.2,2.1-1.8
	c0.2-0.2,0.4-0.4,0.6-0.5c20.2-17.6,21.4-34.8,21.4-38.5C83.6,28.5,83.6,28.3,83.6,28.2z"/>
</svg>
